<?xml version="1.0" encoding="utf-8"?>
<COLLADA xmlns="http://www.collada.org/2005/11/COLLADASchema" version="1.4.1" xmlns:xsi="http://www.w3.org/2001/XMLSchema-instance">
  <asset>
    <contributor>
      <author>Blender User</author>
      <authoring_tool>Blender 4.5.5 LTS commit date:2025-11-17, commit time:16:03, hash:836beaaf597a</authoring_tool>
    </contributor>
    <created>2025-12-19T00:47:00</created>
    <modified>2025-12-19T00:47:00</modified>
    <unit name="meter" meter="1"/>
    <up_axis>Z_UP</up_axis>
  </asset>
  <library_effects>
    <effect id="Material_001-effect">
      <profile_COMMON>
        <newparam sid="texture_png-surface">
          <surface type="2D">
            <init_from>texture_png</init_from>
          </surface>
        </newparam>
        <newparam sid="texture_png-sampler">
          <sampler2D>
            <source>texture_png-surface</source>
          </sampler2D>
        </newparam>
        <technique sid="common">
          <lambert>
            <emission>
              <color sid="emission">0 0 0 1</color>
            </emission>
            <diffuse>
              <texture texture="texture_png-sampler" texcoord="UVMap"/>
            </diffuse>
            <index_of_refraction>
              <float sid="ior">1.5</float>
            </index_of_refraction>
          </lambert>
        </technique>
      </profile_COMMON>
    </effect>
  </library_effects>
  <library_images>
    <image id="texture_png" name="texture_png">
      <init_from>texture.png</init_from>
    </image>
  </library_images>
  <library_materials>
    <material id="Material_001-material" name="Material.001">
      <instance_effect url="#Material_001-effect"/>
    </material>
  </library_materials>
  <library_geometries>
    <geometry id="Circle-mesh" name="Circle">
      <mesh>
        <source id="Circle-mesh-positions">
          <float_array id="Circle-mesh-positions-array" count="672">0.02999222 0.09230673 0.3164985 0.05704867 0.07852083 0.3164985 0.07852077 0.05704867 0.3164985 0.09230673 0.02999228 0.3164985 0.09705704 0 0.3164985 0.09230673 -0.02999228 0.3164985 0.07852077 -0.05704867 0.3164985 0.05704867 -0.07852083 0.3164985 0.02999222 -0.09230673 0.3164985 0 -0.09705704 0.3164985 -0.02999228 -0.09230673 0.3164985 -0.05704873 -0.07852083 0.3164985 -0.07852083 -0.05704867 0.3164985 -0.09230679 -0.02999228 0.3164985 -0.0970571 0 0.3164985 -0.09230679 0.02999228 0.3164985 -0.07852083 0.05704867 0.3164985 -0.05704873 0.07852083 0.3164985 0 0.09705704 0.3164985 -0.02999228 0.09230673 0.3164985 0.02999222 0.09230673 0.2721891 0.05704867 0.07852083 0.2721891 0.07852077 0.05704867 0.2721891 0.09230673 0.02999228 0.2721891 0.09705704 0 0.2721891 0.09230673 -0.02999228 0.2721891 0.07852077 -0.05704867 0.2721891 0.05704867 -0.07852083 0.2721891 0.02999222 -0.09230673 0.2721891 0 -0.09705704 0.2721891 -0.02999228 -0.09230673 0.2721891 -0.05704873 -0.07852083 0.2721891 -0.07852083 -0.05704867 0.2721891 -0.09230679 -0.02999228 0.2721891 -0.0970571 0 0.2721891 -0.09230679 0.02999228 0.2721891 -0.07852083 0.05704867 0.2721891 -0.05704873 0.07852083 0.2721891 0 0.09705704 0.2721891 -0.02999228 0.09230673 0.2721891 0 0.09705704 0.2721891 -0.02999228 0.09230673 0.2721891 -0.05704873 0.07852083 0.2721891 -0.07852083 0.05704867 0.2721891 -0.09230679 0.02999228 0.2721891 -0.0970571 0 0.2721891 -0.09230679 -0.02999228 0.2721891 -0.07852083 -0.05704867 0.2721891 -0.05704873 -0.07852083 0.2721891 -0.02999228 -0.09230673 0.2721891 0 -0.09705704 0.2721891 0.02999222 -0.09230673 0.2721891 0.05704867 -0.07852083 0.2721891 0.07852077 -0.05704867 0.2721891 0.09230673 -0.02999228 0.2721891 0.09705704 0 0.2721891 0.09230673 0.02999228 0.2721891 0.07852077 0.05704867 0.2721891 0.05704867 0.07852083 0.2721891 0.02999222 0.09230673 0.2721891 0 0.09705704 0.3164985 -0.02999228 0.09230673 0.3164985 -0.05704873 0.07852083 0.3164985 -0.07852083 0.05704867 0.3164985 -0.09230679 0.02999228 0.3164985 -0.0970571 0 0.3164985 -0.09230679 -0.02999228 0.3164985 -0.07852083 -0.05704867 0.3164985 -0.05704873 -0.07852083 0.3164985 -0.02999228 -0.09230673 0.3164985 0 -0.09705704 0.3164985 0.02999222 -0.09230673 0.3164985 0.05704867 -0.07852083 0.3164985 0.07852077 -0.05704867 0.3164985 0.09230673 -0.02999228 0.3164985 0.09705704 0 0.3164985 0.09230673 0.02999228 0.3164985 0.07852077 0.05704867 0.3164985 0.05704867 0.07852083 0.3164985 0.02999222 0.09230673 0.3164985 0 0.4691404 0 0 0.4912344 0.02182203 -0.1517997 0.4671917 0.02182203 -0.1449723 0.446179 0 -0.2887404 0.397417 0.02182203 -0.2757538 0.3795425 0 -0.397417 0.2887403 0.02182203 -0.3795426 0.2757538 0 -0.4671918 0.1517997 0.02182203 -0.446179 0.1449723 0 -0.4912345 0 0.02182203 -0.4691404 0 0 -0.4671918 -0.1517997 0.02182203 -0.446179 -0.1449723 0 -0.397417 -0.2887403 0.02182203 -0.3795426 -0.2757538 0 -0.2887404 -0.397417 0.02182203 -0.2757538 -0.3795425 0 -0.1517997 -0.4671917 0.02182203 -0.1449723 -0.446179 0 0 -0.4912344 0.02182203 0 -0.4691404 0 0.1517997 -0.4671917 0.02182203 0.1449723 -0.446179 0 0.2887403 -0.397417 0.02182203 0.2757537 -0.3795425 0 0.397417 -0.2887403 0.02182203 0.3795425 -0.2757538 0 0.4671917 -0.1517997 0.02182203 0.446179 -0.1449723 0 0.4912344 0 0.02182203 0.4691404 0 0 0.4671917 0.1517997 0.02182203 0.446179 0.1449723 0 0.397417 0.2887403 0.02182203 0.3795425 0.2757538 0 0.2887403 0.397417 0.02182203 0.2757537 0.3795425 0 0.1517997 0.4671917 0.02182203 0.1449723 0.446179 0 0 0.4912344 0.250367 0 0.4691404 0.272189 -0.1449723 0.446179 0.272189 -0.1517997 0.4671917 0.250367 -0.2757538 0.3795425 0.272189 -0.2887404 0.397417 0.250367 -0.3795425 0.2757538 0.272189 -0.397417 0.2887403 0.250367 -0.446179 0.1449723 0.272189 -0.4671918 0.1517997 0.250367 -0.4691404 0 0.272189 -0.4912345 0 0.250367 -0.446179 -0.1449723 0.272189 -0.4671918 -0.1517997 0.250367 -0.3795425 -0.2757538 0.272189 -0.397417 -0.2887403 0.250367 -0.2757538 -0.3795425 0.272189 -0.2887404 -0.397417 0.250367 -0.1449723 -0.446179 0.272189 -0.1517997 -0.4671917 0.250367 0 -0.4691404 0.272189 0 -0.4912344 0.250367 0.1449723 -0.446179 0.272189 0.1517997 -0.4671917 0.250367 0.2757537 -0.3795425 0.272189 0.2887403 -0.397417 0.250367 0.3795425 -0.2757538 0.272189 0.397417 -0.2887403 0.250367 0.446179 -0.1449723 0.272189 0.4671917 -0.1517997 0.250367 0.4691404 0 0.272189 0.4912344 0 0.250367 0.446179 0.1449723 0.272189 0.4671917 0.1517997 0.250367 0.3795425 0.2757538 0.272189 0.397417 0.2887403 0.250367 0.2757537 0.3795425 0.272189 0.2887403 0.397417 0.250367 0.1449723 0.446179 0.272189 0.1517997 0.4671917 0.250367 0 -0.04849505 0.3077207 0 -0.04849505 3.557464 -0.04158413 0.02555942 0.3077207 0.04158413 0.02555942 0.3077207 -0.04158413 0.02555942 3.557464 0.04158413 0.02555942 3.557464 0 -0.0407412 3.683281 -0.04158413 0.03277814 3.674394 0.04158413 0.03277814 3.674394 0 -0.01794433 3.807258 -0.04158413 0.05397713 3.789612 0.04158413 0.05397713 3.789612 0 0.01956588 3.927603 -0.04158413 0.08884996 3.901453 0.04158413 0.08884996 3.901453 0 0.07124733 4.042577 -0.04158413 0.1368926 4.008302 0.04158413 0.1368926 4.008302 0 0.136353 4.150517 -0.04158413 0.1974106 4.108613 0.04158413 0.1974106 4.108613 0 0.2139419 4.249866 -0.04158413 0.2695294 4.200935 0.04158413 0.2695294 4.200935 0 0.3028925 4.339184 -0.04158413 0.3522063 4.283936 0.04158413 0.3522063 4.283936 0 0.4019191 4.417182 -0.04158413 0.4442465 4.356416 0.04158413 0.4442465 4.356416 0 0.5095905 4.482732 -0.04158413 0.5443196 4.417326 0.04158413 0.5443196 4.417326 0 0.6243502 4.534888 -0.04158413 0.6509791 4.465787 0.04158413 0.6509791 4.465787 0 0.7445396 4.572894 -0.04158413 0.7626835 4.501097 0.04158413 0.7626835 4.501097 0 0.8684214 4.596203 -0.04158413 0.8778179 4.522746 0.04158413 0.8778179 4.522746 0 0.9942051 4.604475 -0.04158413 0.9947184 4.530422 0.04158413 0.9947184 4.530422 0.04158413 0.9947184 4.530422 -0.04158413 0.9947184 4.530422 0 0.9942051 4.604475 0.004470109 0 0.7961946 0.004470109 0.97594 0.7961946 0.004470109 0 3.580054 0.004470109 0.9759399 4.555994 0.004470109 0.04776591 3.881636 0.004470109 0.1863879 4.153697 0.004470109 0.4022969 4.369606 0.004470109 0.6743579 4.508228 -0.003576099 0 0.7961946 -0.003576099 0.97594 0.7961946 -0.003576099 0 3.580054 -0.003576099 0.9759399 4.555994 -0.003576099 0.04776591 3.881636 -0.003576099 0.1863879 4.153697 -0.003576099 0.4022969 4.369606 -0.003576099 0.6743579 4.508228</float_array>
          <technique_common>
            <accessor source="#Circle-mesh-positions-array" count="224" stride="3">
              <param name="X" type="float"/>
              <param name="Y" type="float"/>
              <param name="Z" type="float"/>
            </accessor>
          </technique_common>
        </source>
        <source id="Circle-mesh-normals">
          <float_array id="Circle-mesh-normals-array" count="627">-4.13369e-7 0 1 -5.44672e-7 0 1 0 0 1 -0.8090179 -0.587784 0 -0.9510563 -0.3090181 0 -0.8090163 -0.5877864 0 1 -1.72401e-6 0 0.9510571 -0.3090153 0 1 1.62797e-6 0 -0.5877864 -0.8090162 0 -0.5877838 -0.8090182 0 -0.3090156 0.951057 0 -1.57514e-6 1 0 -0.3090181 0.9510563 0 0.9510572 0.3090152 0 0.9510561 0.3090184 0 -0.3090184 -0.9510561 0 -0.3090153 -0.9510571 0 -0.587784 0.8090179 0 -0.5877861 0.8090164 0 0.8090183 0.5877836 0 0.8090163 0.5877863 0 -1.37825e-6 -1 0 1.53673e-6 -1 0 -0.8090164 0.5877863 0 -0.8090178 0.5877841 0 0.5877867 0.809016 0 0.5877841 0.8090179 0 0.3090156 -0.951057 0 0.3090181 -0.9510563 0 -0.9510563 0.3090179 0 -0.951057 0.3090155 0 0.3090184 0.9510561 0 0.3090153 0.9510571 0 0.5877842 -0.8090177 0 0.5877864 -0.8090163 0 -1 1.29181e-6 0 -1 -1.22938e-6 0 1.34463e-6 1 0 0.8090164 -0.5877863 0 0.809018 -0.5877839 0 -0.951057 -0.3090155 0 0.9510561 -0.3090183 0 -0.1271179 0.391232 -0.9114707 -6.80525e-7 0.9280313 -0.3725022 0 0.4113664 -0.9114702 -0.2417994 0.3328083 -0.9114668 -0.2867746 0.8826077 -0.3725104 -0.7507923 0.5454788 -0.3725106 -0.3328019 0.2417937 -0.9114707 -0.8826079 0.2867736 -0.3725107 -0.3912435 0.1271218 -0.9114651 -0.9280312 -6.83551e-7 -0.3725026 -0.4113628 0 -0.9114718 -0.3912416 -0.1271212 -0.9114661 -0.3328033 -0.2417957 -0.9114696 -0.8826076 -0.2867748 -0.3725107 -0.5454785 -0.7507921 -0.372511 -0.2417958 -0.3328049 -0.9114689 -0.2867733 -0.8826081 -0.3725104 -0.1271203 -0.3912391 -0.9114673 6.66068e-7 -0.9280315 -0.3725021 0 -0.4113714 -0.9114678 0.1271181 -0.3912322 -0.9114705 0.2417981 -0.3328064 -0.9114679 0.2867747 -0.8826078 -0.3725101 0.7507923 -0.5454787 -0.3725106 0.3328079 -0.241798 -0.9114674 0.8826078 -0.2867736 -0.3725107 0.3912489 -0.1271237 -0.9114626 0.9280312 6.79853e-7 -0.3725026 0.4113628 0 -0.9114717 0.3912404 0.1271209 -0.9114665 0.3328033 0.2417957 -0.9114696 0.8826075 0.2867748 -0.3725107 0.5454786 0.7507921 -0.372511 0.2418001 0.3328106 -0.9114658 0.2867735 0.8826082 -0.3725101 0.1271181 0.3912322 -0.9114705 -0.127119 0.3912349 0.9114693 6.69766e-7 0.9280313 0.3725022 -0.2867733 0.8826079 0.3725107 -0.2417957 0.3328043 0.9114692 -0.5454787 0.7507921 0.3725107 -0.3328032 0.241797 0.9114693 -0.7507883 0.5454838 0.372511 -0.391237 0.1271204 0.9114682 -0.8826038 0.286776 0.3725187 -0.9280311 6.83215e-7 0.3725029 -0.3912351 -0.127119 0.9114692 -0.8826081 -0.2867735 0.3725106 -0.3328014 -0.2417933 0.9114709 -0.7507923 -0.5454786 0.3725107 -0.2417999 -0.3328089 0.9114664 -0.5454798 -0.7507873 0.3725188 -0.2867747 -0.8826076 0.3725107 -6.83215e-7 -0.928031 0.3725031 -0.1271178 -0.3912313 0.9114709 0.1271179 -0.3912315 0.9114708 0.2867735 -0.8826081 0.3725104 0.2417978 -0.3328073 0.9114676 0.5454788 -0.7507921 0.3725109 0.3328033 -0.241797 0.9114693 0.7507884 -0.5454837 0.372511 0.391237 -0.1271204 0.9114682 0.8826038 -0.286776 0.3725187 0.9280311 -6.85905e-7 0.3725029 0.3912351 0.1271191 0.9114692 0.8826081 0.2867736 0.3725105 0.3328045 0.2417955 0.9114692 0.7507922 0.5454785 0.3725107 0.241797 0.3328035 0.9114692 0.5454837 0.7507885 0.3725107 0.1271194 0.3912334 0.9114698 0.286776 0.8826038 0.3725186 -0.5454798 0.7507873 -0.3725189 -0.7507874 -0.54548 -0.3725185 0.5454798 -0.7507873 -0.3725189 0.7507874 0.5454798 -0.3725185 0 1.52351e-7 1 0 0.4113703 0.9114684 1.44622e-7 1.52351e-7 1 0 1.29598e-7 1 0 0 1 0 0 1 0 0 1 -0.4113656 0 0.9114704 0 0 1 0 0 1 -1.44622e-7 -1.52351e-7 1 0 -0.411369 0.911469 0 -1.52351e-7 1 0 0 1 0 0 1 0 0 1 0.4113657 0 0.9114705 0 0 1 0 0 1 0 1.29598e-7 1 0.8704544 0.4920229 -0.01492524 0 -0.9926056 0.1213852 5.16314e-6 -0.9995421 0.03025817 0.8630291 0.5051541 0 -1.01524e-5 -1 0 -0.8630186 0.5051721 0 -0.8704543 0.4920228 -0.01492583 0.8774004 0.4762057 -0.05828309 0 -0.9708647 0.2396281 -0.8774003 0.4762055 -0.05828452 0.8774006 0.4657693 -0.11501 0 -0.9350914 0.3544069 -0.8774006 0.4657689 -0.1150113 0.8774006 0.448601 -0.1700747 0 -0.8858017 0.4640643 -0.8774006 0.4486005 -0.170076 0.8774006 0.4249491 -0.2226808 0 -0.8237096 0.567012 -0.8774005 0.4249483 -0.222682 0.8774007 0.3951537 -0.2720691 0 -0.74971 0.6617665 -0.8774008 0.3951528 -0.2720702 0.8773992 0.35965 -0.3175259 0 -0.6648752 0.7469545 -0.8773992 0.3596492 -0.3175269 0.8773996 0.3189458 -0.3583905 0 -0.5704301 0.8213462 -0.8773996 0.3189448 -0.3583914 0.8774006 0.2736303 -0.3940746 0 -0.4677405 0.883866 -0.8774006 0.2736293 -0.3940753 0.877401 0.2243601 -0.4240638 0 -0.3582891 0.9336107 -0.8774011 0.2243588 -0.4240643 0.8774017 0.1718459 -0.4479233 0 -0.2436605 0.9698607 -0.8774017 0.1718446 -0.4479238 0.8774007 0.1168487 -0.4653111 0 -0.1255052 0.992093 -0.8774006 0.1168473 -0.4653114 0.8773998 0.06016635 -0.4759724 0 -0.06556302 0.9978485 -0.8773998 0.06016492 -0.4759725 0 0.999976 0.006931602 -0.8766937 0.03151959 -0.4800154 0.8766838 0.03152078 -0.4800335 1 0 0 -1 0 0 0 0 1 7.26192e-7 0 1 3.63078e-7 0 1 6.53683e-6 0 1 6.53685e-6 0 1 -3.72892e-7 0 1 -3.26841e-6 0 1 8.17106e-7 0 1 0 0 1 -3.63088e-7 0 1 -6.53685e-6 0 1 -3.26843e-6 0 1 -1.81538e-7 0 1 1.66909e-7 1.60192e-7 1 0 -1.29598e-7 1 -1.66909e-7 -1.60192e-7 1 0 -1.29598e-7 1 1 0 0 -1 0 0 -1 0 0 -1 0 0 -1 0 0</float_array>
          <technique_common>
            <accessor source="#Circle-mesh-normals-array" count="209" stride="3">
              <param name="X" type="float"/>
              <param name="Y" type="float"/>
              <param name="Z" type="float"/>
            </accessor>
          </technique_common>
        </source>
        <source id="Circle-mesh-map-0">
          <float_array id="Circle-mesh-map-0-array" count="1998">0.1056995 0.9794538 0.1069057 0.9770522 0.1076513 0.9755676 0.1059381 0.9789786 0.1027005 0.9782432 0.1023997 0.978842 0.1065723 0.9777159 0.1027005 0.9782432 0.1030339 0.9775794 0.1056995 0.9794538 0.1023997 0.978842 0.1021611 0.9793171 0.1075984 0.975673 0.1041128 0.9754311 0.1040599 0.9755365 0.1069057 0.9770522 0.1030339 0.9775794 0.1033673 0.9769156 0.1055462 0.9797589 0.1021611 0.9793171 0.1020078 0.9796224 0.1074452 0.9759778 0.1040599 0.9755365 0.1039068 0.9758414 0.1072065 0.9764531 0.1033673 0.9769156 0.1036681 0.9763166 0.1054934 0.9798641 0.1020078 0.9796224 0.1019549 0.9797276 0.1072065 0.9764531 0.1039068 0.9758414 0.1036681 0.9763166 0.1074452 0.9759778 0.1036681 0.9763166 0.1039068 0.9758414 0.1055462 0.9797589 0.1019549 0.9797276 0.1020078 0.9796224 0.1069057 0.9770522 0.1036681 0.9763166 0.1033673 0.9769156 0.1075984 0.975673 0.1039068 0.9758414 0.1040599 0.9755365 0.1056995 0.9794538 0.1020078 0.9796224 0.1021611 0.9793171 0.1065723 0.9777159 0.1033673 0.9769156 0.1030339 0.9775794 0.1076513 0.9755676 0.1040599 0.9755365 0.1041128 0.9754311 0.1059381 0.9789786 0.1021611 0.9793171 0.1023997 0.978842 0.1062389 0.9783797 0.1030339 0.9775794 0.1027005 0.9782432 0.1062389 0.9783797 0.1023997 0.978842 0.1027005 0.9782432 0.08625555 0.9668648 0.08849948 0.9659349 0.08651077 0.9663566 0.08551454 0.9683402 0.08823221 0.966467 0.08625555 0.9668648 0.08624839 0.970417 0.08551454 0.9683402 0.08436089 0.9706372 0.08472597 0.973448 0.08436089 0.9706372 0.08290696 0.9735319 0.0830385 0.976808 0.08290696 0.9735319 0.08129537 0.9767407 0.07968378 0.9799496 0.0830385 0.976808 0.08129537 0.9767407 0.07822978 0.9828445 0.08135098 0.9801678 0.07968378 0.9799496 0.07862061 0.9856042 0.07822978 0.9828445 0.07707619 0.9851413 0.07784473 0.987149 0.07707619 0.9851413 0.07633519 0.9866166 0.07757753 0.9876809 0.07633519 0.9866166 0.0760799 0.9871249 0.07633519 0.9866166 0.07757753 0.9876809 0.0760799 0.9871249 0.07707619 0.9851413 0.07784473 0.987149 0.07633519 0.9866166 0.07982856 0.983199 0.07707619 0.9851413 0.07822978 0.9828445 0.08135098 0.9801678 0.07822978 0.9828445 0.07968378 0.9799496 0.0830385 0.976808 0.07968378 0.9799496 0.08129537 0.9767407 0.08290696 0.9735319 0.0830385 0.976808 0.08129537 0.9767407 0.08436089 0.9706372 0.08472597 0.973448 0.08290696 0.9735319 0.08745646 0.9680116 0.08436089 0.9706372 0.08551454 0.9683402 0.08823221 0.966467 0.08551454 0.9683402 0.08625555 0.9668648 0.08849948 0.9659349 0.08625555 0.9668648 0.08651077 0.9663566 0.107994 0.9677035 0.1067522 0.966639 0.1064849 0.9671711 0.1072531 0.9691789 0.1064849 0.9671711 0.1057091 0.9687158 0.1060994 0.9714758 0.1057091 0.9687158 0.1045011 0.9711211 0.1046455 0.9743706 0.1045011 0.9711211 0.1029787 0.9741523 0.1012912 0.9775121 0.1046455 0.9743706 0.1029787 0.9741523 0.1014223 0.9807882 0.1012912 0.9775121 0.09960371 0.980872 0.09996831 0.9836831 0.09960371 0.980872 0.09808129 0.9839032 0.09881472 0.98598 0.09808129 0.9839032 0.09687328 0.9863083 0.0960974 0.9878531 0.09881472 0.98598 0.09687328 0.9863083 0.09583026 0.9883852 0.09807372 0.9874553 0.0960974 0.9878531 0.09807372 0.9874553 0.09583026 0.9883852 0.0960974 0.9878531 0.09881472 0.98598 0.0960974 0.9878531 0.09687328 0.9863083 0.09996831 0.9836831 0.09687328 0.9863083 0.09808129 0.9839032 0.1014223 0.9807882 0.09808129 0.9839032 0.09960371 0.980872 0.1012912 0.9775121 0.1014223 0.9807882 0.09960371 0.980872 0.1046455 0.9743706 0.1012912 0.9775121 0.1029787 0.9741523 0.1060994 0.9714758 0.1029787 0.9741523 0.1045011 0.9711211 0.1072531 0.9691789 0.1045011 0.9711211 0.1057091 0.9687158 0.107994 0.9677035 0.1057091 0.9687158 0.1064849 0.9671711 0.1067522 0.966639 0.107994 0.9677035 0.1064849 0.9671711 0.07968378 0.9799496 0.0760799 0.9871249 0.07968378 0.9799496 0.1067522 0.966639 0.08823221 0.966467 0.08849948 0.9659349 0.1064849 0.9671711 0.08849948 0.9659349 0.08823221 0.966467 0.1057091 0.9687158 0.08823221 0.966467 0.08745646 0.9680116 0.1045011 0.9711211 0.08745646 0.9680116 0.08624839 0.970417 0.1029787 0.9741523 0.08624839 0.970417 0.08472597 0.973448 0.1012912 0.9775121 0.08472597 0.973448 0.0830385 0.976808 0.09960371 0.980872 0.0830385 0.976808 0.08135098 0.9801678 0.09808129 0.9839032 0.08135098 0.9801678 0.07982856 0.983199 0.09687328 0.9863083 0.07982856 0.983199 0.07862061 0.9856042 0.0960974 0.9878531 0.07862061 0.9856042 0.07784473 0.987149 0.09583026 0.9883852 0.07784473 0.987149 0.07757753 0.9876809 0.0960974 0.9878531 0.07757753 0.9876809 0.07784473 0.987149 0.09687328 0.9863083 0.07784473 0.987149 0.07862061 0.9856042 0.09808129 0.9839032 0.07862061 0.9856042 0.07982856 0.983199 0.09960371 0.980872 0.07982856 0.983199 0.08135098 0.9801678 0.1012912 0.9775121 0.08135098 0.9801678 0.0830385 0.976808 0.1029787 0.9741523 0.0830385 0.976808 0.08472597 0.973448 0.1045011 0.9711211 0.08472597 0.973448 0.08624839 0.970417 0.1057091 0.9687158 0.08624839 0.970417 0.08745646 0.9680116 0.1064849 0.9671711 0.08745646 0.9680116 0.08823221 0.966467 0.1040599 0.9755365 0.1082493 0.9671953 0.107994 0.9677035 0.1082493 0.9671953 0.1040599 0.9755365 0.107994 0.9677035 0.1039068 0.9758414 0.107994 0.9677035 0.1072531 0.9691789 0.1036681 0.9763166 0.1072531 0.9691789 0.1060994 0.9714758 0.1033673 0.9769156 0.1060994 0.9714758 0.1046455 0.9743706 0.1030339 0.9775794 0.1046455 0.9743706 0.1030339 0.9775794 0.1027005 0.9782432 0.1030339 0.9775794 0.1014223 0.9807882 0.1023997 0.978842 0.1014223 0.9807882 0.09996831 0.9836831 0.09881472 0.98598 0.1023997 0.978842 0.09996831 0.9836831 0.1020078 0.9796224 0.09881472 0.98598 0.09807372 0.9874553 0.09781843 0.9879635 0.1020078 0.9796224 0.09807372 0.9874553 0.1020078 0.9796224 0.09781843 0.9879635 0.09807372 0.9874553 0.09881472 0.98598 0.1020078 0.9796224 0.09807372 0.9874553 0.1023997 0.978842 0.09881472 0.98598 0.09996831 0.9836831 0.1027005 0.9782432 0.09996831 0.9836831 0.1014223 0.9807882 0.1030339 0.9775794 0.1014223 0.9807882 0.1030339 0.9775794 0.1033673 0.9769156 0.1030339 0.9775794 0.1046455 0.9743706 0.1036681 0.9763166 0.1046455 0.9743706 0.1060994 0.9714758 0.1039068 0.9758414 0.1060994 0.9714758 0.1072531 0.9691789 0.1040599 0.9755365 0.1072531 0.9691789 0.107994 0.9677035 0.365687 0.987136 0.3749983 0.9889908 0.3648639 0.9887748 0.1061547 0.9771233 0.3648639 0.9887748 0.1053316 0.9787621 0.1061547 0.9771233 0.365687 0.987136 0.1061547 0.9771233 0.1053316 0.9787621 0.365687 0.987136 0.1061547 0.9771233 0.3751057 0.9873361 0.3851528 0.9888685 0.3749983 0.9889908 0.365687 0.987136 0.3749983 0.9889908 0.3751057 0.9873361 0.365687 0.987136 0.3751057 0.9873361 0.365687 0.987136 0.384543 0.9872219 0.3951807 0.9884088 0.3851528 0.9888685 0.3751057 0.9873361 0.3851528 0.9888685 0.384543 0.9872219 0.3751057 0.9873361 0.384543 0.9872219 0.3751057 0.9873361 0.3938631 0.9867945 0.4049371 0.9876191 0.3951807 0.9884088 0.384543 0.9872219 0.3951807 0.9884088 0.3938631 0.9867945 0.384543 0.9872219 0.3938631 0.9867945 0.384543 0.9872219 0.4029297 0.9860604 0.4142806 0.9865109 0.4049371 0.9876191 0.3938631 0.9867945 0.4049371 0.9876191 0.4029297 0.9860604 0.3938631 0.9867945 0.4029297 0.9860604 0.3938631 0.9867945 0.4116132 0.98503 0.423078 0.9850996 0.4142806 0.9865109 0.4029297 0.9860604 0.4142806 0.9865109 0.4116132 0.98503 0.4029297 0.9860604 0.4116132 0.98503 0.4029297 0.9860604 0.4197886 0.9837183 0.4311994 0.9834058 0.423078 0.9850996 0.4116132 0.98503 0.423078 0.9850996 0.4197886 0.9837183 0.4116132 0.98503 0.4197886 0.9837183 0.4116132 0.98503 0.4273359 0.982144 0.4385295 0.9814541 0.4311994 0.9834058 0.4197886 0.9837183 0.4311994 0.9834058 0.4273359 0.982144 0.4197886 0.9837183 0.4273359 0.982144 0.4197886 0.9837183 0.4341474 0.9803304 0.4449624 0.979273 0.4385295 0.9814541 0.4273359 0.982144 0.4385295 0.9814541 0.4341474 0.9803304 0.4273359 0.982144 0.4341474 0.9803304 0.4273359 0.982144 0.440124 0.9783028 0.4504026 0.9768934 0.4449624 0.979273 0.4341474 0.9803304 0.4449624 0.979273 0.440124 0.9783028 0.4341474 0.9803304 0.440124 0.9783028 0.4341474 0.9803304 0.4451805 0.9760913 0.454774 0.9743504 0.4504026 0.9768934 0.440124 0.9783028 0.4504026 0.9768934 0.4451805 0.9760913 0.440124 0.9783028 0.4451805 0.9760913 0.440124 0.9783028 0.4492424 0.9737275 0.4580129 0.9716801 0.454774 0.9743504 0.4451805 0.9760913 0.454774 0.9743504 0.4492424 0.9737275 0.4451805 0.9760913 0.4492424 0.9737275 0.4451805 0.9760913 0.4522508 0.9712458 0.4600722 0.9689218 0.4580129 0.9716801 0.4492424 0.9737275 0.4580129 0.9716801 0.4522508 0.9712458 0.4492424 0.9737275 0.4522508 0.9712458 0.4492424 0.9737275 0.4600722 0.9689218 0.4541634 0.9686819 0.4541634 0.9686819 0.4522508 0.9712458 0.4600722 0.9689218 0.4541634 0.9686819 0.4522508 0.9712458 0.4541634 0.9686819 0.4522508 0.9712458 0.9366989 0.9910842 0.417308 0.9443114 0.0963068 0.8218594 0.0963068 0.186146 0.417308 0.063694 0.9366989 0.01692122 0.1076513 0.9755676 0.1075984 0.975673 0.1069057 0.9770522 0.1075984 0.975673 0.1074452 0.9759778 0.1069057 0.9770522 0.1074452 0.9759778 0.1072065 0.9764531 0.1069057 0.9770522 0.1069057 0.9770522 0.1065723 0.9777159 0.1062389 0.9783797 0.1062389 0.9783797 0.1059381 0.9789786 0.1056995 0.9794538 0.1056995 0.9794538 0.1055462 0.9797589 0.1054934 0.9798641 0.1054934 0.9798641 0.1055462 0.9797589 0.1056995 0.9794538 0.1056995 0.9794538 0.1059381 0.9789786 0.1062389 0.9783797 0.1062389 0.9783797 0.1065723 0.9777159 0.1069057 0.9770522 0.1069057 0.9770522 0.1072065 0.9764531 0.1074452 0.9759778 0.1074452 0.9759778 0.1075984 0.975673 0.1069057 0.9770522 0.1075984 0.975673 0.1076513 0.9755676 0.1069057 0.9770522 0.1069057 0.9770522 0.1062389 0.9783797 0.1076513 0.9755676 0.1062389 0.9783797 0.1056995 0.9794538 0.1076513 0.9755676 0.1056995 0.9794538 0.1054934 0.9798641 0.1069057 0.9770522 0.1054934 0.9798641 0.1056995 0.9794538 0.1069057 0.9770522 0.1056995 0.9794538 0.1062389 0.9783797 0.1069057 0.9770522 0.1059381 0.9789786 0.1062389 0.9783797 0.1027005 0.9782432 0.1065723 0.9777159 0.1062389 0.9783797 0.1027005 0.9782432 0.1056995 0.9794538 0.1059381 0.9789786 0.1023997 0.978842 0.1075984 0.975673 0.1076513 0.9755676 0.1041128 0.9754311 0.1069057 0.9770522 0.1065723 0.9777159 0.1030339 0.9775794 0.1055462 0.9797589 0.1056995 0.9794538 0.1021611 0.9793171 0.1074452 0.9759778 0.1075984 0.975673 0.1040599 0.9755365 0.1072065 0.9764531 0.1069057 0.9770522 0.1033673 0.9769156 0.1054934 0.9798641 0.1055462 0.9797589 0.1020078 0.9796224 0.1072065 0.9764531 0.1074452 0.9759778 0.1039068 0.9758414 0.1074452 0.9759778 0.1072065 0.9764531 0.1036681 0.9763166 0.1055462 0.9797589 0.1054934 0.9798641 0.1019549 0.9797276 0.1069057 0.9770522 0.1072065 0.9764531 0.1036681 0.9763166 0.1075984 0.975673 0.1074452 0.9759778 0.1039068 0.9758414 0.1056995 0.9794538 0.1055462 0.9797589 0.1020078 0.9796224 0.1065723 0.9777159 0.1069057 0.9770522 0.1033673 0.9769156 0.1076513 0.9755676 0.1075984 0.975673 0.1040599 0.9755365 0.1059381 0.9789786 0.1056995 0.9794538 0.1021611 0.9793171 0.1062389 0.9783797 0.1065723 0.9777159 0.1030339 0.9775794 0.1062389 0.9783797 0.1059381 0.9789786 0.1023997 0.978842 0.08625555 0.9668648 0.08823221 0.966467 0.08849948 0.9659349 0.08551454 0.9683402 0.08745646 0.9680116 0.08823221 0.966467 0.08624839 0.970417 0.08745646 0.9680116 0.08551454 0.9683402 0.08472597 0.973448 0.08624839 0.970417 0.08436089 0.9706372 0.0830385 0.976808 0.08472597 0.973448 0.08290696 0.9735319 0.07968378 0.9799496 0.08135098 0.9801678 0.0830385 0.976808 0.07822978 0.9828445 0.07982856 0.983199 0.08135098 0.9801678 0.07862061 0.9856042 0.07982856 0.983199 0.07822978 0.9828445 0.07784473 0.987149 0.07862061 0.9856042 0.07707619 0.9851413 0.07757753 0.9876809 0.07784473 0.987149 0.07633519 0.9866166 0.07633519 0.9866166 0.07784473 0.987149 0.07757753 0.9876809 0.07707619 0.9851413 0.07862061 0.9856042 0.07784473 0.987149 0.07982856 0.983199 0.07862061 0.9856042 0.07707619 0.9851413 0.08135098 0.9801678 0.07982856 0.983199 0.07822978 0.9828445 0.0830385 0.976808 0.08135098 0.9801678 0.07968378 0.9799496 0.08290696 0.9735319 0.08472597 0.973448 0.0830385 0.976808 0.08436089 0.9706372 0.08624839 0.970417 0.08472597 0.973448 0.08745646 0.9680116 0.08624839 0.970417 0.08436089 0.9706372 0.08823221 0.966467 0.08745646 0.9680116 0.08551454 0.9683402 0.08849948 0.9659349 0.08823221 0.966467 0.08625555 0.9668648 0.107994 0.9677035 0.1082493 0.9671953 0.1067522 0.966639 0.1072531 0.9691789 0.107994 0.9677035 0.1064849 0.9671711 0.1060994 0.9714758 0.1072531 0.9691789 0.1057091 0.9687158 0.1046455 0.9743706 0.1060994 0.9714758 0.1045011 0.9711211 0.1012912 0.9775121 0.1030339 0.9775794 0.1046455 0.9743706 0.1014223 0.9807882 0.1030339 0.9775794 0.1012912 0.9775121 0.09996831 0.9836831 0.1014223 0.9807882 0.09960371 0.980872 0.09881472 0.98598 0.09996831 0.9836831 0.09808129 0.9839032 0.0960974 0.9878531 0.09807372 0.9874553 0.09881472 0.98598 0.09583026 0.9883852 0.09781843 0.9879635 0.09807372 0.9874553 0.09807372 0.9874553 0.09781843 0.9879635 0.09583026 0.9883852 0.09881472 0.98598 0.09807372 0.9874553 0.0960974 0.9878531 0.09996831 0.9836831 0.09881472 0.98598 0.09687328 0.9863083 0.1014223 0.9807882 0.09996831 0.9836831 0.09808129 0.9839032 0.1012912 0.9775121 0.1030339 0.9775794 0.1014223 0.9807882 0.1046455 0.9743706 0.1030339 0.9775794 0.1012912 0.9775121 0.1060994 0.9714758 0.1046455 0.9743706 0.1029787 0.9741523 0.1072531 0.9691789 0.1060994 0.9714758 0.1045011 0.9711211 0.107994 0.9677035 0.1072531 0.9691789 0.1057091 0.9687158 0.1067522 0.966639 0.1082493 0.9671953 0.107994 0.9677035 0.08551454 0.9683402 0.08625555 0.9668648 0.08651077 0.9663566 0.08651077 0.9663566 0.08625555 0.9668648 0.08551454 0.9683402 0.08551454 0.9683402 0.08436089 0.9706372 0.08290696 0.9735319 0.08290696 0.9735319 0.08129537 0.9767407 0.07968378 0.9799496 0.07968378 0.9799496 0.07822978 0.9828445 0.0760799 0.9871249 0.07822978 0.9828445 0.07707619 0.9851413 0.0760799 0.9871249 0.07707619 0.9851413 0.07633519 0.9866166 0.0760799 0.9871249 0.0760799 0.9871249 0.07633519 0.9866166 0.07968378 0.9799496 0.07633519 0.9866166 0.07707619 0.9851413 0.07968378 0.9799496 0.07707619 0.9851413 0.07822978 0.9828445 0.07968378 0.9799496 0.07968378 0.9799496 0.08129537 0.9767407 0.08290696 0.9735319 0.08290696 0.9735319 0.08436089 0.9706372 0.08551454 0.9683402 0.08551454 0.9683402 0.08651077 0.9663566 0.07968378 0.9799496 0.08651077 0.9663566 0.08551454 0.9683402 0.07968378 0.9799496 0.08551454 0.9683402 0.08290696 0.9735319 0.07968378 0.9799496 0.07968378 0.9799496 0.08290696 0.9735319 0.07968378 0.9799496 0.08290696 0.9735319 0.08551454 0.9683402 0.07968378 0.9799496 0.1067522 0.966639 0.1064849 0.9671711 0.08823221 0.966467 0.1064849 0.9671711 0.1067522 0.966639 0.08849948 0.9659349 0.1057091 0.9687158 0.1064849 0.9671711 0.08823221 0.966467 0.1045011 0.9711211 0.1057091 0.9687158 0.08745646 0.9680116 0.1029787 0.9741523 0.1045011 0.9711211 0.08624839 0.970417 0.1012912 0.9775121 0.1029787 0.9741523 0.08472597 0.973448 0.09960371 0.980872 0.1012912 0.9775121 0.0830385 0.976808 0.09808129 0.9839032 0.09960371 0.980872 0.08135098 0.9801678 0.09687328 0.9863083 0.09808129 0.9839032 0.07982856 0.983199 0.0960974 0.9878531 0.09687328 0.9863083 0.07862061 0.9856042 0.09583026 0.9883852 0.0960974 0.9878531 0.07784473 0.987149 0.0960974 0.9878531 0.09583026 0.9883852 0.07757753 0.9876809 0.09687328 0.9863083 0.0960974 0.9878531 0.07784473 0.987149 0.09808129 0.9839032 0.09687328 0.9863083 0.07862061 0.9856042 0.09960371 0.980872 0.09808129 0.9839032 0.07982856 0.983199 0.1012912 0.9775121 0.09960371 0.980872 0.08135098 0.9801678 0.1029787 0.9741523 0.1012912 0.9775121 0.0830385 0.976808 0.1045011 0.9711211 0.1029787 0.9741523 0.08472597 0.973448 0.1057091 0.9687158 0.1045011 0.9711211 0.08624839 0.970417 0.1064849 0.9671711 0.1057091 0.9687158 0.08745646 0.9680116 0.1040599 0.9755365 0.1041128 0.9754311 0.1082493 0.9671953 0.1082493 0.9671953 0.1041128 0.9754311 0.1040599 0.9755365 0.1039068 0.9758414 0.1040599 0.9755365 0.107994 0.9677035 0.1036681 0.9763166 0.1039068 0.9758414 0.1072531 0.9691789 0.1033673 0.9769156 0.1036681 0.9763166 0.1060994 0.9714758 0.1030339 0.9775794 0.1033673 0.9769156 0.1046455 0.9743706 0.1027005 0.9782432 0.1030339 0.9775794 0.1030339 0.9775794 0.1023997 0.978842 0.1027005 0.9782432 0.1014223 0.9807882 0.09881472 0.98598 0.1021611 0.9793171 0.1023997 0.978842 0.1020078 0.9796224 0.1021611 0.9793171 0.09881472 0.98598 0.09781843 0.9879635 0.1019549 0.9797276 0.1020078 0.9796224 0.1020078 0.9796224 0.1019549 0.9797276 0.09781843 0.9879635 0.09881472 0.98598 0.1021611 0.9793171 0.1020078 0.9796224 0.1023997 0.978842 0.1021611 0.9793171 0.09881472 0.98598 0.1027005 0.9782432 0.1023997 0.978842 0.09996831 0.9836831 0.1030339 0.9775794 0.1027005 0.9782432 0.1014223 0.9807882 0.1033673 0.9769156 0.1030339 0.9775794 0.1030339 0.9775794 0.1036681 0.9763166 0.1033673 0.9769156 0.1046455 0.9743706 0.1039068 0.9758414 0.1036681 0.9763166 0.1060994 0.9714758 0.1040599 0.9755365 0.1039068 0.9758414 0.1072531 0.9691789 0.365687 0.987136 0.3751057 0.9873361 0.3749983 0.9889908 0.1061547 0.9771233 0.365687 0.987136 0.3648639 0.9887748 0.1061547 0.9771233 0.365687 0.987136 0.365687 0.987136 0.1053316 0.9787621 0.3648639 0.9887748 0.365687 0.987136 0.3751057 0.9873361 0.384543 0.9872219 0.3851528 0.9888685 0.365687 0.987136 0.3648639 0.9887748 0.3749983 0.9889908 0.365687 0.987136 0.3751057 0.9873361 0.3751057 0.9873361 0.384543 0.9872219 0.3938631 0.9867945 0.3951807 0.9884088 0.3751057 0.9873361 0.3749983 0.9889908 0.3851528 0.9888685 0.3751057 0.9873361 0.384543 0.9872219 0.384543 0.9872219 0.3938631 0.9867945 0.4029297 0.9860604 0.4049371 0.9876191 0.384543 0.9872219 0.3851528 0.9888685 0.3951807 0.9884088 0.384543 0.9872219 0.3938631 0.9867945 0.3938631 0.9867945 0.4029297 0.9860604 0.4116132 0.98503 0.4142806 0.9865109 0.3938631 0.9867945 0.3951807 0.9884088 0.4049371 0.9876191 0.3938631 0.9867945 0.4029297 0.9860604 0.4029297 0.9860604 0.4116132 0.98503 0.4197886 0.9837183 0.423078 0.9850996 0.4029297 0.9860604 0.4049371 0.9876191 0.4142806 0.9865109 0.4029297 0.9860604 0.4116132 0.98503 0.4116132 0.98503 0.4197886 0.9837183 0.4273359 0.982144 0.4311994 0.9834058 0.4116132 0.98503 0.4142806 0.9865109 0.423078 0.9850996 0.4116132 0.98503 0.4197886 0.9837183 0.4197886 0.9837183 0.4273359 0.982144 0.4341474 0.9803304 0.4385295 0.9814541 0.4197886 0.9837183 0.423078 0.9850996 0.4311994 0.9834058 0.4197886 0.9837183 0.4273359 0.982144 0.4273359 0.982144 0.4341474 0.9803304 0.440124 0.9783028 0.4449624 0.979273 0.4273359 0.982144 0.4311994 0.9834058 0.4385295 0.9814541 0.4273359 0.982144 0.4341474 0.9803304 0.4341474 0.9803304 0.440124 0.9783028 0.4451805 0.9760913 0.4504026 0.9768934 0.4341474 0.9803304 0.4385295 0.9814541 0.4449624 0.979273 0.4341474 0.9803304 0.440124 0.9783028 0.440124 0.9783028 0.4451805 0.9760913 0.4492424 0.9737275 0.454774 0.9743504 0.440124 0.9783028 0.4449624 0.979273 0.4504026 0.9768934 0.440124 0.9783028 0.4451805 0.9760913 0.4451805 0.9760913 0.4492424 0.9737275 0.4522508 0.9712458 0.4580129 0.9716801 0.4451805 0.9760913 0.4504026 0.9768934 0.454774 0.9743504 0.4451805 0.9760913 0.4492424 0.9737275 0.4492424 0.9737275 0.4522508 0.9712458 0.4541634 0.9686819 0.4600722 0.9689218 0.4492424 0.9737275 0.454774 0.9743504 0.4580129 0.9716801 0.4492424 0.9737275 0.4522508 0.9712458 0.4522508 0.9712458 0.4522508 0.9712458 0.4580129 0.9716801 0.4600722 0.9689218 0.4522508 0.9712458 0.4541634 0.9686819 0.4541634 0.9686819 0.0963068 0.8218594 0.05305826 0.7461801 0.9366989 0.9910842 0.05305826 0.7461801 0.05305826 0.04759347 0.9366989 0.04759347 0.9366989 0.04759347 0.9366989 0.9910842 0.05305826 0.7461801 0.9366989 0.9910842 0.663639 0.9790977 0.417308 0.9443114 0.417308 0.9443114 0.2218186 0.8901308 0.0963068 0.8218594 0.05305826 0.9604119 0.05305826 0.2618254 0.9366989 0.9604119 0.05305826 0.2618254 0.0963068 0.186146 0.9366989 0.01692122 0.9366989 0.9604119 0.05305826 0.2618254 0.9366989 0.01692122 0.0963068 0.186146 0.2218186 0.1178746 0.417308 0.063694 0.417308 0.063694 0.663639 0.02890771 0.9366989 0.01692122</float_array>
          <technique_common>
            <accessor source="#Circle-mesh-map-0-array" count="999" stride="2">
              <param name="S" type="float"/>
              <param name="T" type="float"/>
            </accessor>
          </technique_common>
        </source>
        <vertices id="Circle-mesh-vertices">
          <input semantic="POSITION" source="#Circle-mesh-positions"/>
        </vertices>
        <triangles material="Material_001-material" count="333">
          <input semantic="VERTEX" source="#Circle-mesh-vertices" offset="0"/>
          <input semantic="NORMAL" source="#Circle-mesh-normals" offset="1"/>
          <input semantic="TEXCOORD" source="#Circle-mesh-map-0" offset="2" set="0"/>
          <p>68 0 0 76 1 1 60 2 2 12 3 3 33 4 4 32 5 5 4 6 6 25 7 7 24 8 8 11 9 9 32 5 10 31 10 11 19 11 12 38 12 13 39 13 14 3 14 15 24 8 16 23 15 17 10 16 18 31 10 19 30 17 20 17 18 21 39 13 22 37 19 23 2 20 24 23 15 25 22 21 26 9 22 27 30 17 28 29 23 29 16 24 30 37 19 31 36 25 32 1 26 33 22 21 34 21 27 35 8 28 36 29 23 37 28 29 38 15 30 39 36 25 40 35 31 41 0 32 42 21 27 43 20 33 44 7 34 45 28 29 46 27 35 47 14 36 48 35 31 49 34 37 50 18 38 51 20 33 52 38 12 53 6 39 54 27 35 55 26 40 56 13 41 57 34 37 58 33 4 59 5 42 60 26 40 61 25 7 62 83 43 63 81 44 64 80 45 65 85 46 66 82 47 67 83 43 68 86 48 69 85 46 70 87 49 71 88 50 72 87 49 73 89 51 74 90 52 75 89 51 76 91 53 77 93 54 78 90 52 79 91 53 80 95 55 81 92 56 82 93 54 83 96 57 84 95 55 85 97 58 86 98 59 87 97 58 88 99 60 89 100 61 90 99 60 91 101 62 92 103 63 93 100 61 94 101 62 95 105 64 96 102 65 97 103 63 98 106 66 99 105 64 100 107 67 101 108 68 102 107 67 103 109 69 104 110 70 105 109 69 106 111 71 107 113 72 108 110 70 109 111 71 110 115 73 111 112 74 112 113 72 113 116 75 114 115 73 115 117 76 116 118 77 117 117 76 118 119 78 119 81 44 120 119 78 121 80 45 122 122 79 123 120 80 124 123 81 125 124 82 126 123 81 127 125 83 128 126 84 129 125 83 130 127 85 131 128 86 132 127 85 133 129 87 134 131 88 135 128 86 136 129 87 137 132 89 138 131 88 139 133 90 140 134 91 141 133 90 142 135 92 143 136 93 144 135 92 145 137 94 146 139 95 147 136 93 148 137 94 149 141 96 150 138 97 151 139 95 152 142 98 153 141 96 154 143 99 155 144 100 156 143 99 157 145 101 158 146 102 159 145 101 160 147 103 161 148 104 162 147 103 163 149 105 164 151 106 165 148 104 166 149 105 167 152 107 168 151 106 169 153 108 170 154 109 171 153 108 172 155 110 173 156 111 174 155 110 175 157 112 176 158 113 177 157 112 178 159 114 179 120 80 180 158 113 181 159 114 182 109 69 183 101 62 184 93 54 185 120 80 186 118 77 187 81 44 188 123 81 189 81 44 190 82 47 191 125 83 192 82 47 193 84 115 194 127 85 195 84 115 196 86 48 197 129 87 198 86 48 199 88 50 200 131 88 201 88 50 202 90 52 203 133 90 204 90 52 205 92 56 206 135 92 207 92 56 208 94 116 209 137 94 210 94 116 211 96 57 212 139 95 213 96 57 214 98 59 215 141 96 216 98 59 217 100 61 218 143 99 219 100 61 220 102 65 221 145 101 222 102 65 223 104 117 224 147 103 225 104 117 226 106 66 227 149 105 228 106 66 229 108 68 230 151 106 231 108 68 232 110 70 233 153 108 234 110 70 235 112 74 236 155 110 237 112 74 238 114 118 239 157 112 240 114 118 241 116 75 242 159 114 243 116 75 244 118 77 245 41 119 246 121 120 247 122 79 248 121 120 249 59 121 250 158 113 251 42 122 252 122 79 253 124 82 254 43 123 255 124 82 256 126 84 257 44 124 258 126 84 259 128 86 260 45 125 261 128 86 262 130 126 263 46 127 264 130 126 265 132 89 266 47 128 267 132 89 268 134 91 269 136 93 270 47 128 271 134 91 272 49 129 273 136 93 274 138 97 275 140 130 276 49 129 277 138 97 278 51 131 279 140 130 280 142 98 281 144 100 282 51 131 283 142 98 284 53 132 285 144 100 286 146 102 287 54 133 288 146 102 289 148 104 290 55 134 291 148 104 292 150 135 293 56 136 294 150 135 295 152 107 296 57 137 297 152 107 298 154 109 299 58 138 300 154 109 301 156 111 302 59 121 303 156 111 304 158 113 305 165 139 306 166 140 307 161 141 308 163 142 309 161 141 310 160 143 311 162 144 312 165 139 313 163 142 314 160 143 315 164 145 316 162 144 317 168 146 318 169 147 319 166 140 320 164 145 321 166 140 322 167 148 323 164 145 324 168 146 325 165 139 326 171 149 327 172 150 328 169 147 329 167 148 330 169 147 331 170 151 332 167 148 333 171 149 334 168 146 335 174 152 336 175 153 337 172 150 338 170 151 339 172 150 340 173 154 341 170 151 342 174 152 343 171 149 344 177 155 345 178 156 346 175 153 347 173 154 348 175 153 349 176 157 350 173 154 351 177 155 352 174 152 353 180 158 354 181 159 355 178 156 356 176 157 357 178 156 358 179 160 359 176 157 360 180 158 361 177 155 362 183 161 363 184 162 364 181 159 365 179 160 366 181 159 367 182 163 368 179 160 369 183 161 370 180 158 371 186 164 372 187 165 373 184 162 374 182 163 375 184 162 376 185 166 377 182 163 378 186 164 379 183 161 380 189 167 381 190 168 382 187 165 383 185 166 384 187 165 385 188 169 386 185 166 387 189 167 388 186 164 389 192 170 390 193 171 391 190 168 392 188 169 393 190 168 394 191 172 395 188 169 396 192 170 397 189 167 398 195 173 399 196 174 400 193 171 401 191 172 402 193 171 403 194 175 404 191 172 405 195 173 406 192 170 407 198 176 408 199 177 409 196 174 410 194 175 411 196 174 412 197 178 413 194 175 414 198 176 415 195 173 416 201 179 417 202 180 418 199 177 419 197 178 420 199 177 421 200 181 422 197 178 423 201 179 424 198 176 425 207 182 426 205 182 427 206 182 428 200 181 429 202 180 430 203 183 431 200 181 432 204 184 433 201 179 434 211 185 435 214 185 436 212 185 437 220 186 438 222 186 439 219 186 440 60 2 441 61 187 442 64 188 443 61 187 444 62 189 445 64 188 446 62 189 447 63 190 448 64 188 449 64 188 450 65 191 451 66 192 452 66 192 453 67 193 454 68 0 455 68 0 456 69 194 457 70 195 458 70 195 459 71 187 460 72 187 461 72 187 462 73 187 463 74 196 464 74 196 465 75 197 466 76 1 467 76 1 468 77 198 469 78 199 470 78 199 471 79 187 472 76 1 473 79 187 474 60 2 475 76 1 476 64 188 477 66 192 478 60 2 479 66 192 480 68 0 481 60 2 482 68 0 483 70 195 484 76 1 485 70 195 486 72 187 487 76 1 488 72 187 489 74 196 490 76 1 491 12 3 492 13 41 493 33 4 494 4 6 495 5 42 496 25 7 497 11 9 498 12 3 499 32 5 500 19 11 501 18 38 502 38 12 503 3 14 504 4 6 505 24 8 506 10 16 507 11 9 508 31 10 509 17 18 510 19 11 511 39 13 512 2 20 513 3 14 514 23 15 515 9 22 516 10 16 517 30 17 518 16 24 519 17 18 520 37 19 521 1 26 522 2 20 523 22 21 524 8 28 525 9 22 526 29 23 527 15 30 528 16 24 529 36 25 530 0 32 531 1 26 532 21 27 533 7 34 534 8 28 535 28 29 536 14 36 537 15 30 538 35 31 539 18 38 540 0 32 541 20 33 542 6 39 543 7 34 544 27 35 545 13 41 546 14 36 547 34 37 548 5 42 549 6 39 550 26 40 551 83 43 552 82 47 553 81 44 554 85 46 555 84 115 556 82 47 557 86 48 558 84 115 559 85 46 560 88 50 561 86 48 562 87 49 563 90 52 564 88 50 565 89 51 566 93 54 567 92 56 568 90 52 569 95 55 570 94 116 571 92 56 572 96 57 573 94 116 574 95 55 575 98 59 576 96 57 577 97 58 578 100 61 579 98 59 580 99 60 581 103 63 582 102 65 583 100 61 584 105 64 585 104 117 586 102 65 587 106 66 588 104 117 589 105 64 590 108 68 591 106 66 592 107 67 593 110 70 594 108 68 595 109 69 596 113 72 597 112 74 598 110 70 599 115 73 600 114 118 601 112 74 602 116 75 603 114 118 604 115 73 605 118 77 606 116 75 607 117 76 608 81 44 609 118 77 610 119 78 611 122 79 612 121 120 613 120 80 614 124 82 615 122 79 616 123 81 617 126 84 618 124 82 619 125 83 620 128 86 621 126 84 622 127 85 623 131 88 624 130 126 625 128 86 626 132 89 627 130 126 628 131 88 629 134 91 630 132 89 631 133 90 632 136 93 633 134 91 634 135 92 635 139 95 636 138 97 637 136 93 638 141 96 639 140 130 640 138 97 641 142 98 642 140 130 643 141 96 644 144 100 645 142 98 646 143 99 647 146 102 648 144 100 649 145 101 650 148 104 651 146 102 652 147 103 653 151 106 654 150 135 655 148 104 656 152 107 657 150 135 658 151 106 659 154 109 660 152 107 661 153 108 662 156 111 663 154 109 664 155 110 665 158 113 666 156 111 667 157 112 668 120 80 669 121 120 670 158 113 671 85 46 672 83 43 673 80 45 674 80 45 675 119 78 676 117 76 677 117 76 678 115 73 679 113 72 680 113 72 681 111 71 682 109 69 683 109 69 684 107 67 685 101 62 686 107 67 687 105 64 688 101 62 689 105 64 690 103 63 691 101 62 692 101 62 693 99 60 694 93 54 695 99 60 696 97 58 697 93 54 698 97 58 699 95 55 700 93 54 701 93 54 702 91 53 703 89 51 704 89 51 705 87 49 706 85 46 707 85 46 708 80 45 709 109 69 710 80 45 711 117 76 712 109 69 713 117 76 714 113 72 715 109 69 716 93 54 717 89 51 718 109 69 719 89 51 720 85 46 721 109 69 722 120 80 723 159 114 724 118 77 725 123 81 726 120 80 727 81 44 728 125 83 729 123 81 730 82 47 731 127 85 732 125 83 733 84 115 734 129 87 735 127 85 736 86 48 737 131 88 738 129 87 739 88 50 740 133 90 741 131 88 742 90 52 743 135 92 744 133 90 745 92 56 746 137 94 747 135 92 748 94 116 749 139 95 750 137 94 751 96 57 752 141 96 753 139 95 754 98 59 755 143 99 756 141 96 757 100 61 758 145 101 759 143 99 760 102 65 761 147 103 762 145 101 763 104 117 764 149 105 765 147 103 766 106 66 767 151 106 768 149 105 769 108 68 770 153 108 771 151 106 772 110 70 773 155 110 774 153 108 775 112 74 776 157 112 777 155 110 778 114 118 779 159 114 780 157 112 781 116 75 782 41 119 783 40 200 784 121 120 785 121 120 786 40 200 787 59 121 788 42 122 789 41 119 790 122 79 791 43 123 792 42 122 793 124 82 794 44 124 795 43 123 796 126 84 797 45 125 798 44 124 799 128 86 800 46 127 801 45 125 802 130 126 803 47 128 804 46 127 805 132 89 806 136 93 807 48 201 808 47 128 809 49 129 810 48 201 811 136 93 812 140 130 813 50 202 814 49 129 815 51 131 816 50 202 817 140 130 818 144 100 819 52 203 820 51 131 821 53 132 822 52 203 823 144 100 824 54 133 825 53 132 826 146 102 827 55 134 828 54 133 829 148 104 830 56 136 831 55 134 832 150 135 833 57 137 834 56 136 835 152 107 836 58 138 837 57 137 838 154 109 839 59 121 840 58 138 841 156 111 842 165 139 843 168 146 844 166 140 845 163 142 846 165 139 847 161 141 848 162 144 849 164 145 850 165 139 851 160 143 852 161 141 853 164 145 854 168 146 855 171 149 856 169 147 857 164 145 858 161 141 859 166 140 860 164 145 861 167 148 862 168 146 863 171 149 864 174 152 865 172 150 866 167 148 867 166 140 868 169 147 869 167 148 870 170 151 871 171 149 872 174 152 873 177 155 874 175 153 875 170 151 876 169 147 877 172 150 878 170 151 879 173 154 880 174 152 881 177 155 882 180 158 883 178 156 884 173 154 885 172 150 886 175 153 887 173 154 888 176 157 889 177 155 890 180 158 891 183 161 892 181 159 893 176 157 894 175 153 895 178 156 896 176 157 897 179 160 898 180 158 899 183 161 900 186 164 901 184 162 902 179 160 903 178 156 904 181 159 905 179 160 906 182 163 907 183 161 908 186 164 909 189 167 910 187 165 911 182 163 912 181 159 913 184 162 914 182 163 915 185 166 916 186 164 917 189 167 918 192 170 919 190 168 920 185 166 921 184 162 922 187 165 923 185 166 924 188 169 925 189 167 926 192 170 927 195 173 928 193 171 929 188 169 930 187 165 931 190 168 932 188 169 933 191 172 934 192 170 935 195 173 936 198 176 937 196 174 938 191 172 939 190 168 940 193 171 941 191 172 942 194 175 943 195 173 944 198 176 945 201 179 946 199 177 947 194 175 948 193 171 949 196 174 950 194 175 951 197 178 952 198 176 953 201 179 954 204 184 955 202 180 956 197 178 957 196 174 958 199 177 959 197 178 960 200 181 961 201 179 962 200 181 963 199 177 964 202 180 965 200 181 966 203 183 967 204 184 968 212 185 969 210 185 970 211 185 971 210 185 972 208 185 973 209 185 974 209 204 975 211 204 976 210 204 977 211 185 978 215 185 979 214 185 980 214 185 981 213 185 982 212 185 983 216 205 984 218 205 985 217 205 986 218 206 987 220 206 988 219 206 989 217 205 990 218 205 991 219 205 992 220 207 993 221 207 994 222 207 995 222 208 996 223 208 997 219 208 998</p>
        </triangles>
      </mesh>
    </geometry>
  </library_geometries>
  <library_visual_scenes>
    <visual_scene id="Scene" name="Scene">
      <node id="Circle" name="Circle" type="NODE">
        <matrix sid="transform">1 0 0 0 0 1 0 0 0 0 1 0 0 0 0 1</matrix>
        <instance_geometry url="#Circle-mesh" name="Circle">
          <bind_material>
            <technique_common>
              <instance_material symbol="Material_001-material" target="#Material_001-material">
                <bind_vertex_input semantic="UVMap" input_semantic="TEXCOORD" input_set="0"/>
              </instance_material>
            </technique_common>
          </bind_material>
        </instance_geometry>
      </node>
    </visual_scene>
  </library_visual_scenes>
  <scene>
    <instance_visual_scene url="#Scene"/>
  </scene>
</COLLADA>